# xmcd
#
# Track frame offsets:
#	150
#	12578
#	24680
#	35518
#	59578
#	74313
#	75838
#	90270
#	113355
#	128628
#	148908
#	151575
#	163688
#	176218
#	188385
#	203555
#	213653
#	227945
#	241870
#	255525
#	265888
#	275525
#
# Disc length: 3959 seconds
#
# Revision: 3
# Processed by: cddbd v1.5.2PL0 Copyright (c) Steve Scherf et al.
# Submitted via: EasyCDDAExtractor 15.0.0.1
#
DISCID=260f7516
DTITLE=The Fabulous Thunderbirds - Different Tacos
DYEAR=1996
DGENRE=Latin
TTITLE0=Can't Tear It Up Enuff
TTITLE1=You're Humbuggin' Me
TTITLE2=My Babe
TTITLE3=Feelin' Good
TTITLE4=Found A New Love
TTITLE5=Introduction Of Band Bottom Line Austin
TTITLE6=Bad Boy
TTITLE7=Scratch My Back
TTITLE8=She's Tough
TTITLE9=Full-Time Lover
TTITLE10=Introduction Of Guest Musicians
TTITLE11=Made In The Shade
TTITLE12=The Crawl
TTITLE13=I Hear You Knockin'
TTITLE14=Mathilda
TTITLE15=Someday
TTITLE16=Wait On Time
TTITLE17=I Got Eyes
TTITLE18=Things I Forgot To Do 
TTITLE19=Look Whatcha Done
TTITLE20=Please Don't Lie To Me
TTITLE21=Pocket Rocket
EXTD=LIVE in  AUSTIN TEXAS AND EUROPE YEAR: 1996
EXTT0=
EXTT1=
EXTT2=
EXTT3=
EXTT4=
EXTT5=
EXTT6=
EXTT7=
EXTT8=
EXTT9=
EXTT10=
EXTT11=
EXTT12=
EXTT13=
EXTT14=
EXTT15=
EXTT16=
EXTT17=
EXTT18=
EXTT19=
EXTT20=
EXTT21=
PLAYORDER=
